<svg width="16" height="16" viewBox="0 0 16 16" fill="none" xmlns="http://www.w3.org/2000/svg">
<path d="M1.31712 1.738H2.66812V0H4.33412V1.738H11.6641V0H13.3291V1.738H14.6801C15.0341 1.711 15.3821 1.848 15.6341 2.114C15.8861 2.38 16.0171 2.75 15.9941 3.128V14.6C16.0291 14.981 15.9021 15.359 15.6471 15.629C15.3921 15.899 15.0371 16.032 14.6801 15.992H1.31712C0.459117 15.992 0.00311722 15.513 0.00311722 14.602V3.127C-0.00943987 2.94219 0.0160276 2.75678 0.0779466 2.5822C0.139865 2.40762 0.236921 2.24759 0.363117 2.112C0.614117 1.845 0.963117 1.708 1.31712 1.737V1.738ZM1.33512 4.802V14.702H14.6621V4.802H1.33512ZM11.6351 6L13.0001 7.246L7.13712 13.778L5.77112 12.532L3.00012 10.013L4.23212 8.636L7.00812 11.156L11.6341 6H11.6351Z" fill="#D40054"/>
</svg>
