<svg width="14" height="20" viewBox="0 0 14 20" fill="none" xmlns="http://www.w3.org/2000/svg">
<g clip-path="url(#clip0)">
<path d="M6.99998 3.65251e-05C5.14665 0.0104577 3.37215 0.76052 2.06162 2.08743C0.751093 3.41434 0.0102925 5.21102 0 7.08753C0 10.9715 6.99998 20 6.99998 20C6.99998 20 14 10.9715 14 7.08753C14.0029 6.15595 13.8239 5.23297 13.4731 4.37172C13.1224 3.51048 12.6069 2.72797 11.9563 2.06924C11.3057 1.4105 10.5329 0.888558 9.68226 0.533439C8.83164 0.17832 7.92006 -0.00295894 6.99998 3.65251e-05ZM6.99998 10C6.43106 10 5.87491 9.82921 5.40187 9.50918C4.92883 9.18915 4.56014 8.73428 4.34242 8.20209C4.1247 7.6699 4.06774 7.0843 4.17873 6.51933C4.28972 5.95437 4.56368 5.43541 4.96597 5.02809C5.36826 4.62077 5.88081 4.34338 6.4388 4.23101C6.99679 4.11863 7.57516 4.1763 8.10078 4.39674C8.6264 4.61718 9.07565 4.99048 9.39173 5.46944C9.7078 5.9484 9.87651 6.5115 9.87651 7.08753C9.88347 7.47194 9.81383 7.85383 9.67173 8.21038C9.52964 8.56693 9.31801 8.89081 9.0495 9.16268C8.78099 9.43454 8.46111 9.64881 8.10897 9.79268C7.75682 9.93655 7.37965 10.0071 6.99998 10Z" fill="#D40054"/>
</g>
<defs>
<clipPath id="clip0">
<rect width="14" height="20" fill="white"/>
</clipPath>
</defs>
</svg>
