<svg width="16" height="16" viewBox="0 0 16 16" fill="none" xmlns="http://www.w3.org/2000/svg">
<path d="M6.663 0C4.89659 0.00238114 3.20322 0.705138 1.95418 1.95418C0.705138 3.20322 0.00238114 4.89659 0 6.663C0 10.334 2.99 13.325 6.663 13.325C8.19936 13.3258 9.68825 12.7927 10.875 11.817L14.853 15.795C14.9149 15.8569 14.9883 15.9059 15.0691 15.9394C15.1499 15.9729 15.2365 15.9901 15.324 15.9901C15.4115 15.9901 15.4981 15.9729 15.5789 15.9394C15.6597 15.9059 15.7331 15.8569 15.795 15.795C15.8569 15.7331 15.9059 15.6597 15.9394 15.5789C15.9729 15.4981 15.9901 15.4115 15.9901 15.324C15.9901 15.2365 15.9729 15.1499 15.9394 15.0691C15.9059 14.9883 15.8569 14.9149 15.795 14.853L11.817 10.875C12.7927 9.68825 13.3258 8.19936 13.325 6.663C13.325 2.99 10.335 0 6.663 0ZM6.663 1.333C7.36332 1.33168 8.057 1.46865 8.70426 1.73604C9.35152 2.00343 9.93962 2.39598 10.4348 2.89118C10.93 3.38638 11.3226 3.97448 11.59 4.62174C11.8574 5.269 11.9943 5.96268 11.993 6.663C11.9943 7.36332 11.8574 8.057 11.59 8.70426C11.3226 9.35152 10.93 9.93962 10.4348 10.4348C9.93962 10.93 9.35152 11.3226 8.70426 11.59C8.057 11.8574 7.36332 11.9943 6.663 11.993C5.96268 11.9943 5.269 11.8574 4.62174 11.59C3.97448 11.3226 3.38638 10.93 2.89118 10.4348C2.39598 9.93962 2.00343 9.35152 1.73604 8.70426C1.46865 8.057 1.33168 7.36332 1.333 6.663C1.33168 5.96268 1.46865 5.269 1.73604 4.62174C2.00343 3.97448 2.39598 3.38638 2.89118 2.89118C3.38638 2.39598 3.97448 2.00343 4.62174 1.73604C5.269 1.46865 5.96268 1.33168 6.663 1.333Z" fill="#D40054"/>
</svg>
