<svg width="20" height="20" viewBox="0 0 20 20" fill="none" xmlns="http://www.w3.org/2000/svg">
<path d="M17.14 10.94C17.18 10.64 17.2 10.33 17.2 9.99999C17.2 9.67999 17.18 9.35999 17.13 9.05999L19.16 7.47999C19.34 7.33999 19.39 7.06999 19.28 6.86999L17.36 3.54999C17.24 3.32999 16.99 3.25999 16.77 3.32999L14.38 4.28999C13.88 3.90999 13.35 3.58999 12.76 3.34999L12.4 0.809994C12.36 0.569994 12.16 0.399994 11.92 0.399994H8.07999C7.83999 0.399994 7.64999 0.569994 7.60999 0.809994L7.24999 3.34999C6.65999 3.58999 6.11999 3.91999 5.62999 4.28999L3.23999 3.32999C3.01999 3.24999 2.76999 3.32999 2.64999 3.54999L0.739988 6.86999C0.619988 7.07999 0.659988 7.33999 0.859988 7.47999L2.88999 9.05999C2.83999 9.35999 2.79999 9.68999 2.79999 9.99999C2.79999 10.31 2.81999 10.64 2.86999 10.94L0.839988 12.52C0.659988 12.66 0.609988 12.93 0.719988 13.13L2.63999 16.45C2.75999 16.67 3.00999 16.74 3.22999 16.67L5.61999 15.71C6.11999 16.09 6.64999 16.41 7.23999 16.65L7.59999 19.19C7.64999 19.43 7.83999 19.6 8.07999 19.6H11.92C12.16 19.6 12.36 19.43 12.39 19.19L12.75 16.65C13.34 16.41 13.88 16.09 14.37 15.71L16.76 16.67C16.98 16.75 17.23 16.67 17.35 16.45L19.27 13.13C19.39 12.91 19.34 12.66 19.15 12.52L17.14 10.94ZM9.99999 13.6C8.01999 13.6 6.39999 11.98 6.39999 9.99999C6.39999 8.01999 8.01999 6.39999 9.99999 6.39999C11.98 6.39999 13.6 8.01999 13.6 9.99999C13.6 11.98 11.98 13.6 9.99999 13.6Z" fill="#D40054"/>
</svg>
